<svg width="221" height="37" viewBox="0 0 221 37" fill="none" xmlns="http://www.w3.org/2000/svg">
<g id="DekoSolar Logo">
<path id="Vector" d="M85.4656 1.33265C84.3838 0.777378 83.2647 0.333162 82.0896 0C80.9144 0.333162 79.7766 0.758869 78.7135 1.29563C72.6514 4.33111 68.5106 10.5871 68.5292 17.8797C68.5292 25.1537 72.6887 31.4653 78.7508 34.5933C79.814 35.1486 80.9517 35.5928 82.1269 35.9445C83.302 35.6113 84.4398 35.1856 85.503 34.6488C91.565 31.5949 95.7059 25.3388 95.6872 18.0648C95.6686 10.7907 91.5277 4.47918 85.4656 1.36967V1.33265ZM82.1082 32.3722C76.214 30.2067 71.9613 24.4874 71.9426 17.8797C71.9426 11.272 76.1767 5.60823 82.0709 3.51671C87.9651 5.68226 92.2178 11.4015 92.2178 18.0093C92.2178 24.617 87.9837 30.2807 82.0896 32.3722H82.1082Z" fill="#FCD672"/>
<path id="Vector_2" d="M8.48688 3.38721H0V32.5574H8.48688C17.7572 32.5574 23.2969 27.0972 23.2969 17.9723C23.2969 8.84736 17.7572 3.38721 8.48688 3.38721ZM21.3384 18.0463C21.3384 25.9867 16.5261 30.725 8.48688 30.725H1.95851V5.2196H8.46822C16.638 5.2196 21.3198 9.90237 21.3198 18.0463H21.3384Z" fill="white"/>
<path id="Vector_3" d="M26.5425 33.3532H44.654V29.9105H30.1238V19.5825H44.654V16.1584H30.1238V6.01543H44.654V2.57275H26.5425V33.3532Z" fill="white"/>
<path id="Vector_4" d="M69.9841 2.57275H65.5634L52.7305 19.4715V2.57275H49.1493V33.3532H52.7305V25.1537L56.1439 20.6931L65.5634 33.3532H69.9468L58.4009 17.7871L69.9841 2.57275Z" fill="white"/>
<path id="Vector_5" d="M97.7949 4.88638C96.9929 3.97944 96.1162 3.16505 95.1276 2.42469C93.9152 2.29512 92.7028 2.29512 91.509 2.42469C84.7568 3.0725 78.6015 7.42211 75.9529 14.1964C73.2856 20.9892 74.8524 28.3558 79.3663 33.4458C80.1683 34.3527 81.045 35.1671 82.0336 35.9075C83.246 36.037 84.4584 36.037 85.6521 35.9075C92.4043 35.2596 98.5597 30.91 101.208 24.1357C103.876 17.3429 102.309 9.97636 97.7949 4.88638ZM83.3019 32.6129C78.6015 28.4668 76.7363 21.6185 79.1424 15.455C81.5486 9.29152 87.5734 5.55271 93.8406 5.71929C98.541 9.8653 100.406 16.7136 98.0001 22.8771C95.5939 29.0406 89.5692 32.7794 83.3019 32.6129Z" fill="#FFC72A"/>
<path id="Vector_6" d="M115.757 16.7877L115.552 16.7322C111.187 15.5846 108.334 14.5481 108.371 10.7352C108.371 7.51468 110.852 5.16404 114.284 5.16404C117.436 5.16404 119.339 6.86687 119.973 10.217L120.047 10.6242H122.192L122.118 10.0504C121.428 4.94193 117.511 3.12805 114.358 3.12805C110.311 3.12805 106.207 5.75633 106.207 10.8093V10.9203C106.282 16.436 111.355 17.7502 113.799 18.3795L114.023 18.435C116.709 19.1013 120.775 20.1378 120.775 24.8391C120.775 28.6334 117.38 30.9656 114.209 30.9656C113.631 30.9656 108.52 30.799 107.755 24.8946L107.699 24.4504H105.554L105.592 24.9872C105.965 30.2437 110.236 33.0016 114.228 33.0016C118.219 33.0016 122.901 29.818 122.901 24.691C122.901 20.582 120.495 17.9167 115.72 16.7877H115.757Z" fill="white"/>
<path id="Vector_7" d="M140.267 3.1095C131.649 3.1095 125.158 9.53212 125.158 18.0648C125.158 26.5974 131.649 33.02 140.267 33.02C148.884 33.02 155.375 26.5974 155.375 18.0648C155.375 9.53212 148.884 3.1095 140.267 3.1095ZM153.211 18.0648C153.211 25.3018 147.522 30.984 140.267 30.984C133.011 30.984 127.322 25.3018 127.322 18.0648C127.322 10.8277 133.011 5.14549 140.267 5.14549C147.522 5.14549 153.211 10.8277 153.211 18.0648Z" fill="white"/>
<path id="Vector_8" d="M185.107 3.5907L172.946 31.7614V30.4843H161.045V3.5907H158.882V32.5203H174.942L179.157 22.7845H193.184L197.399 32.5203H199.731L187.252 3.5907H185.089H185.107ZM180.09 20.7485L186.152 6.45959L192.251 20.7485H180.071H180.09Z" fill="white"/>
<path id="Vector_9" d="M220.286 12.8822V12.6786C220.211 9.347 218.42 6.10792 215.958 4.81229C214.503 4.03491 212.769 3.5907 208.236 3.5907H201.298V32.5203H203.461V5.62669H208.236C211.519 5.62669 213.459 5.68221 215.026 6.6817C216.891 7.88478 218.141 10.3095 218.141 12.7341C218.141 14.9922 217.451 16.7321 215.921 18.3054C214.224 19.712 212.657 19.9527 210.008 19.9527H207.266L216.238 32.5017H218.943L211.351 21.9516H211.5C217.936 21.748 220.286 16.4174 220.286 12.8822Z" fill="white"/>
</g>
</svg>
